<?xml version="1.0" encoding="UTF-8"?>
<svg width="100px" height="100px" viewBox="0 0 100 100" version="1.1" xmlns="http://www.w3.org/2000/svg" xmlns:xlink="http://www.w3.org/1999/xlink">
    <!-- Generator: Sketch 50.2 (55047) - http://www.bohemiancoding.com/sketch -->
    <title>fred</title>
    <desc>Created with Sketch.</desc>
    <defs></defs>
    <g id="Symbols" stroke="none" stroke-width="1" fill="none" fill-rule="evenodd">
        <g id="fred" fill="#000000" fill-rule="nonzero">
            <g id="heart-solid" transform="translate(19.000000, 24.000000)">
                <path d="M36.1247563,2.46393762 C31.8518519,-1.17738791 25.497076,-0.522417154 21.5750487,3.52436647 L20.0389864,5.10721248 L18.502924,3.52436647 C14.588694,-0.522417154 8.22612086,-1.17738791 3.95321637,2.46393762 C-0.943469786,6.64327485 -1.20077973,14.1442495 3.18128655,18.6744639 L18.2690058,34.2534113 C19.2436647,35.2592593 20.8265107,35.2592593 21.8011696,34.2534113 L36.8888889,18.6744639 C41.2787524,14.1442495 41.0214425,6.64327485 36.1247563,2.46393762 Z" id="Shape"></path>
            </g>
            <g id="search-regular">
                <path d="M99.122807,91.4035088 L75.4580897,67.7387914 C75.0097466,67.2904483 74.4249513,67.0565302 73.8011696,67.0565302 L71.2280702,67.0565302 C77.3684211,59.9415205 81.0916179,50.6822612 81.0916179,40.545809 C81.0916179,18.1481481 62.9434698,0 40.545809,0 C18.1481481,0 0,18.1481481 0,40.545809 C0,62.9434698 18.1481481,81.0916179 40.545809,81.0916179 C50.6822612,81.0916179 59.9415205,77.3684211 67.0565302,71.2280702 L67.0565302,73.8011696 C67.0565302,74.4249513 67.3099415,75.0097466 67.7387914,75.4580897 L91.4035088,99.122807 C92.3196881,100.038986 93.8011696,100.038986 94.7173489,99.122807 L99.122807,94.7173489 C100.038986,93.8011696 100.038986,92.3196881 99.122807,91.4035088 Z M40.545809,71.7348928 C23.3138402,71.7348928 9.35672515,57.7777778 9.35672515,40.545809 C9.35672515,23.3138402 23.3138402,9.35672515 40.545809,9.35672515 C57.7777778,9.35672515 71.7348928,23.3138402 71.7348928,40.545809 C71.7348928,57.7777778 57.7777778,71.7348928 40.545809,71.7348928 Z" id="Shape"></path>
            </g>
        </g>
    </g>
</svg>